Coordinates
version=1
nRows=20
nColumns=38
inDegrees=no

Units are S.I. units (second, meters, Newtons, ...)
If the header above contains a line with 'inDegrees', this indicates whether rotational values are in degrees (yes) or radians (no).

endheader
time	pelvis_tilt	pelvis_list	pelvis_rotation	pelvis_tx	pelvis_ty	pelvis_tz	hip_flexion_r	hip_adduction_r	hip_rotation_r	knee_angle_r	ankle_angle_r	subtalar_angle_r	mtp_angle_r	hip_flexion_l	hip_adduction_l	hip_rotation_l	knee_angle_l	ankle_angle_l	subtalar_angle_l	mtp_angle_l	lumbar_extension	lumbar_bending	lumbar_rotation	arm_flex_r	arm_add_r	arm_rot_r	elbow_flex_r	pro_sup_r	wrist_flex_r	wrist_dev_r	arm_flex_l	arm_add_l	arm_rot_l	elbow_flex_l	pro_sup_l	wrist_flex_l	wrist_dev_l
0.88	-0.238529	1.28249	-1.30575	0.731589	0.428969	0.924986	0.0294717	0.0579674	-0.342689	0.364	0.0199172	0	0	-0.17569	-0.240804	-0.133977	1.12366	-0.377547	0	0	-0.32294	0.0609071	-0.0313132	0.216758	-0.577264	-0.0200729	1.49556	0.913381	0	0	0.333519	-0.448537	0.0883628	1.68899	1.09885	0	0
0.89	-0.232019	1.27944	-1.31047	0.730014	0.417357	0.927192	0.00995028	0.0616212	-0.336633	0.359401	0.019323	0	0	-0.136908	-0.241645	-0.115198	1.1793	-0.349909	0	0	-0.328125	0.0583747	-0.0282591	0.212944	-0.57881	-0.0234225	1.49747	0.891174	0	0	0.338016	-0.44783	0.0955825	1.68899	1.08158	0	0
0.9	-0.220215	1.2775	-1.32154	0.728422	0.405807	0.929558	-0.0093697	0.0627441	-0.330135	0.354673	0.0236568	0	0	-0.0983761	-0.238936	-0.0991973	1.23145	-0.295617	0	0	-0.33338	0.0549246	-0.0289499	0.215063	-0.57816	-0.0215241	1.49838	0.878077	0	0	0.344708	-0.427384	-0.0381796	1.68731	1.5708	0	0
0.91	-0.206435	1.27655	-1.33653	0.726903	0.39435	0.932085	-0.0284357	0.0621364	-0.324477	0.349542	0.029367	0	0	-0.061737	-0.233445	-0.0871698	1.27462	-0.242315	0	0	-0.335768	0.0481578	-0.0213432	0.207611	-0.577187	-0.0319659	1.49805	0.873098	0	0	0.341496	-0.442016	0.0981516	1.68799	1.08211	0	0
0.92	-0.188244	1.27587	-1.35684	0.72527	0.383063	0.934749	-0.048664	0.0600161	-0.319705	0.341921	0.0338759	0	0	-0.0271408	-0.225935	-0.07823	1.3083	-0.19975	0	0	-0.340048	0.0418566	-0.020224	0.21009	-0.57451	-0.0316234	1.49751	0.868372	0	0	0.346842	-0.420264	-0.037066	1.68442	1.5708	0	0
0.93	-0.17085	1.27669	-1.37789	0.723687	0.371982	0.937298	-0.0672742	0.0572021	-0.316048	0.333229	0.036717	0	0	0.00773338	-0.217878	-0.0726542	1.33453	-0.165233	0	0	-0.341919	0.0343559	-0.0145767	0.208372	-0.57262	-0.0359047	1.49662	0.865857	0	0	0.347255	-0.415637	-0.0389282	1.68186	1.5708	0	0
0.94	-0.153578	1.27894	-1.3999	0.722134	0.361031	0.939655	-0.0846688	0.0540879	-0.312622	0.322845	0.0393074	0	0	0.0426768	-0.209121	-0.0695677	1.35366	-0.140235	0	0	-0.342066	0.0265698	-0.00745155	0.205999	-0.571611	-0.0402545	1.49631	0.863339	0	0	0.348463	-0.411652	-0.0383424	1.67756	1.5708	0	0
0.95	-0.135831	1.28184	-1.42341	0.720618	0.35018	0.941877	-0.101962	0.0508106	-0.308417	0.310397	0.0416641	0	0	0.0762716	-0.200023	-0.069024	1.36548	-0.121655	0	0	-0.341357	0.0186255	0.000472915	0.204252	-0.57165	-0.0438427	1.49618	0.860114	0	0	0.349686	-0.407919	-0.0380338	1.67282	1.5708	0	0
0.96	-0.116809	1.28498	-1.44954	0.719029	0.339368	0.944018	-0.119228	0.0471385	-0.303514	0.296815	0.0443273	0	0	0.107479	-0.191116	-0.0720745	1.36963	-0.10599	0	0	-0.34023	0.0101193	0.00933517	0.202978	-0.572587	-0.0458642	1.49682	0.858068	0	0	0.350736	-0.404576	-0.0380872	1.66826	1.5708	0	0
0.97	-0.0970571	1.2879	-1.47755	0.717371	0.328574	0.94611	-0.136551	0.0431719	-0.297777	0.283038	0.0485213	0	0	0.13578	-0.182748	-0.0784903	1.36647	-0.0934276	0	0	-0.339166	0.00127409	0.0187394	0.202435	-0.574004	-0.0461057	1.49752	0.856526	0	0	0.351532	-0.402044	-0.0381637	1.66442	1.5708	0	0
0.98	-0.0770028	1.29085	-1.50675	0.715709	0.317769	0.948094	-0.153775	0.0388899	-0.291203	0.268322	0.0499695	0	0	0.161613	-0.175221	-0.0880028	1.35701	-0.0805744	0	0	-0.337893	-0.00769704	0.0283615	0.202642	-0.575578	-0.0449772	1.49805	0.854912	0	0	0.351818	-0.400335	-0.0383267	1.66128	1.5708	0	0
0.99	-0.0556463	1.29276	-1.5379	0.714084	0.307065	0.950036	-0.17243	0.0340123	-0.282232	0.252369	0.0476788	0	0	0.183967	-0.168039	-0.100304	1.34153	-0.0670143	0	0	-0.337986	-0.0169645	0.0376669	0.20449	-0.576975	-0.0428074	1.49823	0.853315	0	0	0.351607	-0.399337	-0.0391193	1.65912	1.5708	0	0
1	-0.034227	1.29357	-1.56968	0.712484	0.296453	0.951922	-0.192242	0.0288314	-0.272199	0.235895	0.045315	0	0	0.202712	-0.161726	-0.11531	1.3202	-0.0520475	0	0	-0.339482	-0.0264088	0.0468859	0.207383	-0.578103	-0.0403699	1.4984	0.851666	0	0	0.351164	-0.39859	-0.0403795	1.65793	1.5708	0	0
1.01	-0.0150176	1.29341	-1.59951	0.71087	0.285877	0.953735	-0.213224	0.0238143	-0.261893	0.218999	0.0427347	0	0	0.218011	-0.157136	-0.132443	1.29361	-0.0356951	0	0	-0.342021	-0.03547	0.0559056	0.210999	-0.57872	-0.0372673	1.49827	0.849802	0	0	0.350049	-0.398054	-0.0426019	1.65805	1.5708	0	0
1.02	0.000725518	1.2937	-1.62531	0.709348	0.275288	0.955307	-0.233871	0.0195147	-0.251318	0.20167	0.0404513	0	0	0.232079	-0.154103	-0.150343	1.26294	-0.0195371	0	0	-0.343924	-0.0434602	0.0641242	0.214832	-0.578821	-0.0344004	1.49854	0.848792	0	0	0.347994	-0.397712	-0.0457484	1.65924	1.5708	0	0
1.03	0.0144319	1.29451	-1.64835	0.707959	0.264707	0.956615	-0.253592	0.0156433	-0.240931	0.184893	0.039035	0	0	0.244883	-0.1516	-0.168566	1.22769	-0.00770289	0	0	-0.345203	-0.0506364	0.0715046	0.218888	-0.578953	-0.0314218	1.49901	0.85006	0	0	0.345696	-0.397778	-0.0492531	1.66088	1.5708	0	0
1.04	0.0274423	1.29529	-1.67022	0.706671	0.254145	0.957704	-0.272782	0.0117058	-0.231183	0.168941	0.0378865	0	0	0.25541	-0.148986	-0.187196	1.18771	0.000621219	0	0	-0.346364	-0.0574878	0.0782238	0.223313	-0.578826	-0.0284379	1.49932	0.852697	0	0	0.343564	-0.398288	-0.0528101	1.66269	1.5708	0	0
1.05	0.0389116	1.29674	-1.68956	0.70557	0.243559	0.958467	-0.29054	0.00804961	-0.222806	0.15425	0.0372072	0	0	0.264546	-0.146466	-0.20594	1.14325	0.0071788	0	0	-0.346537	-0.0634911	0.0841024	0.227574	-0.5787	-0.0254142	1.4995	0.855237	0	0	0.341761	-0.398822	-0.0561385	1.66469	1.5708	0	0
1.06	0.0479029	1.29887	-1.70566	0.704554	0.232972	0.958898	-0.30653	0.00494086	-0.215687	0.141649	0.0365479	0	0	0.272154	-0.144627	-0.225429	1.09453	0.0141329	0	0	-0.345856	-0.0685161	0.0894669	0.231635	-0.578361	-0.0226527	1.49954	0.858271	0	0	0.340369	-0.399558	-0.0591351	1.66655	1.5708	0	0
1.07	0.0543994	1.3007	-1.71827	0.703653	0.222409	0.959097	-0.322343	0.00248208	-0.209153	0.130284	0.0379405	0	0	0.277049	-0.142867	-0.245271	1.04135	0.0218924	0	0	-0.345507	-0.0726263	0.0942124	0.235719	-0.577752	-0.020808	1.49967	0.863911	0	0	0.339681	-0.400452	-0.0617483	1.66836	1.5708	0	0
